<svg width="745" height="182" viewBox="0 0 745 182" fill="none" xmlns="http://www.w3.org/2000/svg">
<path d="M86.09 140.08C84.4033 140.54 81.7967 141 78.27 141.46C74.7433 141.92 71.2933 142.15 67.92 142.15C60.8667 142.15 55.5767 141 52.05 138.7C48.5233 136.247 46.76 131.187 46.76 123.52V92.47C42.9267 86.7967 38.7867 80.51 34.34 73.61C29.8933 66.71 25.5233 59.6567 21.23 52.45C16.9367 45.2433 12.95 38.19 9.27 31.29C5.59 24.2367 2.6 17.7967 0.3 11.97C2.29333 9.20999 4.97667 6.67999 8.35 4.37999C11.8767 2.07999 16.17 0.929994 21.23 0.929994C27.21 0.929994 32.04 2.15666 35.72 4.60999C39.5533 7.06333 43.1567 11.6633 46.53 18.41L65.62 56.82H67C69.1467 52.0667 70.9867 47.7733 72.52 43.94C74.2067 39.9533 75.8167 36.0433 77.35 32.21C78.8833 28.2233 80.4933 24.16 82.18 20.02C83.8667 15.7267 85.7833 10.82 87.93 5.29999C90.69 3.91999 93.7567 2.84666 97.13 2.07999C100.503 1.31333 103.723 0.929994 106.79 0.929994C112.157 0.929994 116.68 2.38666 120.36 5.29999C124.193 8.05999 126.11 12.2767 126.11 17.95C126.11 19.79 125.727 22.0133 124.96 24.62C124.193 27.2267 122.43 31.2133 119.67 36.58C116.91 41.7933 112.847 48.9233 107.48 57.97C102.267 67.0167 95.1367 78.8233 86.09 93.39V140.08ZM180.661 116.16C183.268 116.16 186.105 115.93 189.171 115.47C192.391 114.857 194.768 114.09 196.301 113.17V94.77L179.741 96.15C175.448 96.4567 171.921 97.3767 169.161 98.91C166.401 100.443 165.021 102.743 165.021 105.81C165.021 108.877 166.171 111.407 168.471 113.4C170.925 115.24 174.988 116.16 180.661 116.16ZM178.821 25.77C187.101 25.77 194.615 26.6133 201.361 28.3C208.261 29.9867 214.088 32.5933 218.841 36.12C223.748 39.4933 227.505 43.8633 230.111 49.23C232.718 54.4433 234.021 60.6533 234.021 67.86V119.38C234.021 123.367 232.871 126.663 230.571 129.27C228.425 131.723 225.818 133.87 222.751 135.71C212.785 141.69 198.755 144.68 180.661 144.68C172.535 144.68 165.175 143.913 158.581 142.38C152.141 140.847 146.545 138.547 141.791 135.48C137.191 132.413 133.588 128.503 130.981 123.75C128.528 118.997 127.301 113.477 127.301 107.19C127.301 96.61 130.445 88.4833 136.731 82.81C143.018 77.1367 152.755 73.61 165.941 72.23L196.071 69.01V67.4C196.071 62.9533 194.078 59.81 190.091 57.97C186.258 55.9767 180.661 54.98 173.301 54.98C167.475 54.98 161.801 55.5933 156.281 56.82C150.761 58.0467 145.778 59.58 141.331 61.42C139.338 60.04 137.651 57.97 136.271 55.21C134.891 52.2967 134.201 49.3067 134.201 46.24C134.201 42.2533 135.121 39.11 136.961 36.81C138.955 34.3567 141.945 32.2867 145.931 30.6C150.378 28.9133 155.591 27.6867 161.571 26.92C167.705 26.1533 173.455 25.77 178.821 25.77ZM309.219 25.77C318.419 25.77 326.929 26.9967 334.749 29.45C342.722 31.75 349.545 35.3533 355.219 40.26C360.892 45.1667 365.339 51.3767 368.559 58.89C371.779 66.25 373.389 75.0667 373.389 85.34C373.389 95.1533 372.009 103.74 369.249 111.1C366.489 118.46 362.579 124.67 357.519 129.73C352.459 134.637 346.325 138.317 339.119 140.77C332.065 143.223 324.169 144.45 315.429 144.45C308.835 144.45 302.702 143.453 297.029 141.46V179.64C295.495 180.1 293.042 180.56 289.669 181.02C286.295 181.633 282.845 181.94 279.319 181.94C275.945 181.94 272.879 181.71 270.119 181.25C267.512 180.79 265.289 179.87 263.449 178.49C261.609 177.11 260.229 175.193 259.309 172.74C258.389 170.44 257.929 167.373 257.929 163.54V53.14C257.929 49 258.772 45.6267 260.459 43.02C262.299 40.4133 264.752 38.0367 267.819 35.89C272.572 32.8233 278.475 30.37 285.529 28.53C292.582 26.69 300.479 25.77 309.219 25.77ZM309.679 113.63C325.472 113.63 333.369 104.2 333.369 85.34C333.369 75.5267 331.375 68.2433 327.389 63.49C323.555 58.7367 317.959 56.36 310.599 56.36C307.685 56.36 305.079 56.7433 302.779 57.51C300.479 58.1233 298.485 58.89 296.799 59.81V110.41C298.639 111.33 300.632 112.097 302.779 112.71C304.925 113.323 307.225 113.63 309.679 113.63ZM457.145 140.08C455.458 140.54 452.851 141 449.325 141.46C445.798 141.92 442.348 142.15 438.975 142.15C431.921 142.15 426.631 141 423.105 138.7C419.578 136.247 417.815 131.187 417.815 123.52V92.47C413.981 86.7967 409.841 80.51 405.395 73.61C400.948 66.71 396.578 59.6567 392.285 52.45C387.991 45.2433 384.005 38.19 380.325 31.29C376.645 24.2367 373.655 17.7967 371.355 11.97C373.348 9.20999 376.031 6.67999 379.405 4.37999C382.931 2.07999 387.225 0.929994 392.285 0.929994C398.265 0.929994 403.095 2.15666 406.775 4.60999C410.608 7.06333 414.211 11.6633 417.585 18.41L436.675 56.82H438.055C440.201 52.0667 442.041 47.7733 443.575 43.94C445.261 39.9533 446.871 36.0433 448.405 32.21C449.938 28.2233 451.548 24.16 453.235 20.02C454.921 15.7267 456.838 10.82 458.985 5.29999C461.745 3.91999 464.811 2.84666 468.185 2.07999C471.558 1.31333 474.778 0.929994 477.845 0.929994C483.211 0.929994 487.735 2.38666 491.415 5.29999C495.248 8.05999 497.165 12.2767 497.165 17.95C497.165 19.79 496.781 22.0133 496.015 24.62C495.248 27.2267 493.485 31.2133 490.725 36.58C487.965 41.7933 483.901 48.9233 478.535 57.97C473.321 67.0167 466.191 78.8233 457.145 93.39V140.08ZM551.716 116.16C554.323 116.16 557.159 115.93 560.226 115.47C563.446 114.857 565.823 114.09 567.356 113.17V94.77L550.796 96.15C546.503 96.4567 542.976 97.3767 540.216 98.91C537.456 100.443 536.076 102.743 536.076 105.81C536.076 108.877 537.226 111.407 539.526 113.4C541.979 115.24 546.043 116.16 551.716 116.16ZM549.876 25.77C558.156 25.77 565.669 26.6133 572.416 28.3C579.316 29.9867 585.143 32.5933 589.896 36.12C594.803 39.4933 598.559 43.8633 601.166 49.23C603.773 54.4433 605.076 60.6533 605.076 67.86V119.38C605.076 123.367 603.926 126.663 601.626 129.27C599.479 131.723 596.873 133.87 593.806 135.71C583.839 141.69 569.809 144.68 551.716 144.68C543.589 144.68 536.229 143.913 529.636 142.38C523.196 140.847 517.599 138.547 512.846 135.48C508.246 132.413 504.643 128.503 502.036 123.75C499.583 118.997 498.356 113.477 498.356 107.19C498.356 96.61 501.499 88.4833 507.786 82.81C514.073 77.1367 523.809 73.61 536.996 72.23L567.126 69.01V67.4C567.126 62.9533 565.133 59.81 561.146 57.97C557.313 55.9767 551.716 54.98 544.356 54.98C538.529 54.98 532.856 55.5933 527.336 56.82C521.816 58.0467 516.833 59.58 512.386 61.42C510.393 60.04 508.706 57.97 507.326 55.21C505.946 52.2967 505.256 49.3067 505.256 46.24C505.256 42.2533 506.176 39.11 508.016 36.81C510.009 34.3567 512.999 32.2867 516.986 30.6C521.433 28.9133 526.646 27.6867 532.626 26.92C538.759 26.1533 544.509 25.77 549.876 25.77ZM680.273 25.77C689.473 25.77 697.983 26.9967 705.803 29.45C713.777 31.75 720.6 35.3533 726.273 40.26C731.947 45.1667 736.393 51.3767 739.613 58.89C742.833 66.25 744.443 75.0667 744.443 85.34C744.443 95.1533 743.063 103.74 740.303 111.1C737.543 118.46 733.633 124.67 728.573 129.73C723.513 134.637 717.38 138.317 710.173 140.77C703.12 143.223 695.223 144.45 686.483 144.45C679.89 144.45 673.757 143.453 668.083 141.46V179.64C666.55 180.1 664.097 180.56 660.723 181.02C657.35 181.633 653.9 181.94 650.373 181.94C647 181.94 643.933 181.71 641.173 181.25C638.567 180.79 636.343 179.87 634.503 178.49C632.663 177.11 631.283 175.193 630.363 172.74C629.443 170.44 628.983 167.373 628.983 163.54V53.14C628.983 49 629.827 45.6267 631.513 43.02C633.353 40.4133 635.807 38.0367 638.873 35.89C643.627 32.8233 649.53 30.37 656.583 28.53C663.637 26.69 671.533 25.77 680.273 25.77ZM680.733 113.63C696.527 113.63 704.423 104.2 704.423 85.34C704.423 75.5267 702.43 68.2433 698.443 63.49C694.61 58.7367 689.013 56.36 681.653 56.36C678.74 56.36 676.133 56.7433 673.833 57.51C671.533 58.1233 669.54 58.89 667.853 59.81V110.41C669.693 111.33 671.687 112.097 673.833 112.71C675.98 113.323 678.28 113.63 680.733 113.63Z" fill="white"/>
</svg>
